{"title":"The.Ladykillers.2004.720p.HD-TV-Rip.x264.aac.mp4-anoXmous","uid":6829206,"size":733162875,"categoryP":"video","categoryS":"hd___movies","magnet":"?xt=urn:btih:c54e009e443689ecdb65a43d5ad6ee3ea12135b0&amp;dn=The.Ladykillers.2004.720p.HD-TV-Rip.x264.aac.mp4-anoXmous&amp;tr=udp%3A%2F%2Ftracker.openbittorrent.com%3A80&amp;tr=udp%3A%2F%2Fopen.demonii.com%3A1337&amp;tr=udp%3A%2F%2Ftracker.coppersurfer.tk%3A6969&amp;tr=udp%3A%2F%2Fexodus.desync.com%3A6969","seeders":6,"leechers":3,"uploader":"anoXmous","files":3,"time":1321720585,"description":"The.Ladykillers.2004.720p.HD-TV-Rip.x264.aac.mp4-anoXmous\n\nFormat                           : MPEG-4\nFormat profile                   : Base Media / Version 2\nCodec ID                         : mp42\nFile size                        : 699 MiB\nDuration                         : 1h 38mn\nOverall bit rate mode            : Variable\nOverall bit rate                 : 994 Kbps\n\n\nVideo\nID                               : 1\nFormat                           : AVC\nFormat/Info                      : Advanced Video Codec\nFormat profile                   : &lt;a class=&quot;__cf_email__&quot; href=&quot;/cdn-cgi/l/email-protection&quot; data-cfemail=&quot;3c74555b547c7008120d&quot;&gt;[email&amp;#160;protected]&lt;/a&gt;&lt;script cf-hash='f9e31' type=&quot;text/javascript&quot;&gt;\n/* &lt;![CDATA[ */!function(){try{var t=&quot;currentScript&quot;in document?document.currentScript:function(){for(var t=document.getElementsByTagName(&quot;script&quot;),e=t.length;e--;)if(t[e].getAttribute(&quot;cf-hash&quot;))return t[e]}();if(t&amp;&amp;t.previousSibling){var e,r,n,i,c=t.previousSibling,a=c.getAttribute(&quot;data-cfemail&quot;);if(a){for(e=&quot;&quot;,r=parseInt(a.substr(0,2),16),n=2;a.length-n;n+=2)i=parseInt(a.substr(n,2),16)^r,e+=String.fromCharCode(i);e=document.createTextNode(e),c.parentNode.replaceChild(e,c)}}}catch(u){}}();/* ]]&gt; */&lt;/script&gt;\nFormat settings, CABAC           : Yes\nFormat settings, ReFrames        : 4 frames\nCodec ID                         : avc1\nCodec ID/Info                    : Advanced Video Coding\nDuration                         : 1h 38mn\nBit rate mode                    : Variable\nBit rate                         : 926 Kbps\nWidth                            : 1 280 pixels\nHeight                           : 688 pixels\nDisplay aspect ratio             : 1.860\nFrame rate mode                  : Variable\nFrame rate                       : 23.976 fps\nMinimum frame rate               : 23.974 fps\nMaximum frame rate               : 23.981 fps\nColor space                      : YUV\nChroma subsampling               : 4:2:0\nBit depth                        : 8 bits\nScan type                        : Progressive\nBits/(Pixel*Frame)               : 0.044\nStream size                      : 651 MiB (93%)\nLanguage                         : English\n\n\nAudio\nID                               : 2\nFormat                           : AAC\nFormat/Info                      : Advanced Audio Codec\nFormat profile                   : LC\nCodec ID                         : 40\nDuration                         : 1h 38mn\nBit rate mode                    : Variable\nBit rate                         : 64.6 Kbps\nMaximum bit rate                 : 88.2 Kbps\nChannel(s)                       : 2 channels\nChannel positions                : Front: L R\nSampling rate                    : 48.0 KHz \nCompression mode                 : Lossy\nStream size                      : 45.4 MiB (6%)\nLanguage                         : English\n\n &lt;a href=&quot;\nhttp://www.imdb.com/title/tt0335245/&quot; rel=&quot;nofollow&quot; target=&quot;_NEW&quot;&gt;\nhttp://www.imdb.com/title/tt0335245/&lt;/a&gt;\n\nThis 1 should work very fine with PSP and XBOX :)","torrent":{"xt":"urn:btih:c54e009e443689ecdb65a43d5ad6ee3ea12135b0","amp;dn":"The.Ladykillers.2004.720p.HD-TV-Rip.x264.aac.mp4-anoXmous","amp;tr":["udp%3A%2F%2Ftracker.openbittorrent.com%3A80","udp%3A%2F%2Fopen.demonii.com%3A1337","udp%3A%2F%2Ftracker.coppersurfer.tk%3A6969","udp%3A%2F%2Fexodus.desync.com%3A6969"],"infoHash":"c54e009e443689ecdb65a43d5ad6ee3ea12135b0","infoHashBuffer":{"type":"Buffer","data":[197,78,0,158,68,54,137,236,219,101,164,61,90,214,238,62,161,33,53,176]},"announce":[],"urlList":[]}}